<svg width="349" height="69" viewBox="0 0 349 69" fill="none" xmlns="http://www.w3.org/2000/svg">
<g filter="url(#filter0_d_185_10)">
<path d="M29.6801 68.5832C42.5594 68.5832 53.0001 58.0281 53.0001 45.0077C53.0001 31.9873 42.5594 21.4322 29.6801 21.4322C16.8008 21.4322 6.36011 31.9873 6.36011 45.0077C6.36011 58.0281 16.8008 68.5832 29.6801 68.5832Z" fill="#000075"/>
</g>
<path d="M29.9813 45.4647C31.9499 43.4746 33.5114 41.1119 34.5768 38.5116C35.6422 35.9113 36.1906 33.1243 36.1906 30.3098C36.1906 24.6256 33.957 19.1742 29.9813 15.1549C26.0055 11.1356 20.6132 8.87754 14.9906 8.87754C12.2066 8.87754 9.44982 9.4319 6.87772 10.509C4.30561 11.586 1.96855 13.1647 -5.62172e-05 15.1549L29.9813 45.4647Z" fill="#EC0051" fill-opacity="0.9"/>
<path d="M82.6 35.68C82.6 36.8 82.2667 37.8667 81.6 38.88C80.9333 39.8667 80.08 40.6533 79.04 41.24C80.8 41.5867 82.1467 42.3867 83.08 43.64C84.04 44.8933 84.52 46.44 84.52 48.28C84.52 50.0667 84.0267 51.5733 83.04 52.8C82.0533 54 80.7333 54.9067 79.08 55.52C77.4533 56.1067 75.68 56.4 73.76 56.4C71.52 56.4 69.0667 56.2 66.4 55.8V29.76C69.5467 29.5467 72.0533 29.44 73.92 29.44C76.64 29.44 78.76 29.9067 80.28 30.84C81.8267 31.7733 82.6 33.3867 82.6 35.68ZM71.08 40.44C71.6933 40.52 72.3733 40.56 73.12 40.56C74.6933 40.56 75.8667 40.2 76.64 39.48C77.4133 38.76 77.8 37.6267 77.8 36.08C77.8 33.52 76.4133 32.24 73.64 32.24C72.8133 32.24 71.96 32.3067 71.08 32.44V40.44ZM71.08 53.36C72.04 53.52 72.9333 53.6 73.76 53.6C75.6267 53.6 77.0533 53.1733 78.04 52.32C79.0533 51.4667 79.56 50.16 79.56 48.4C79.56 46.4 79.0133 45.0533 77.92 44.36C76.8533 43.64 75.1733 43.28 72.88 43.28C72.16 43.28 71.56 43.32 71.08 43.4V53.36ZM104.082 52.72C104.082 54.0267 104.495 54.9067 105.322 55.36C105.108 55.76 104.788 56.0667 104.362 56.28C103.962 56.4933 103.495 56.6 102.962 56.6C102.188 56.6 101.548 56.3867 101.042 55.96C100.535 55.5067 100.228 54.9067 100.122 54.16C99.6949 55.04 99.0016 55.7067 98.0416 56.16C97.1082 56.64 96.0949 56.88 95.0016 56.88C93.0816 56.88 91.6149 56.4667 90.6016 55.64C89.6149 54.7867 88.9616 53.64 88.6416 52.2C88.3216 50.7333 88.1616 48.8533 88.1616 46.56V35.6H92.5616V46.36C92.5616 47.9867 92.6149 49.3333 92.7216 50.4C92.8549 51.44 93.1882 52.3333 93.7216 53.08C94.2549 53.8267 95.0682 54.2 96.1616 54.2C97.3349 54.2 98.2149 53.76 98.8016 52.88C99.3882 51.9733 99.6816 50.8533 99.6816 49.52V35.6H104.082V52.72ZM125.011 52.72C125.011 54.0267 125.424 54.9067 126.251 55.36C126.037 55.76 125.717 56.0667 125.291 56.28C124.891 56.4933 124.424 56.6 123.891 56.6C123.117 56.6 122.477 56.3867 121.971 55.96C121.464 55.5067 121.157 54.9067 121.051 54.16C120.624 55.04 119.931 55.7067 118.971 56.16C118.037 56.64 117.024 56.88 115.931 56.88C113.211 56.88 111.237 55.84 110.011 53.76C108.784 51.68 108.171 49.0133 108.171 45.76C108.171 42.4 108.891 39.7333 110.331 37.76C111.797 35.7867 114.064 34.8 117.131 34.8C118.411 34.8 119.571 34.9733 120.611 35.32V28L125.011 27.52V52.72ZM120.611 38.44C119.384 37.6133 118.157 37.2 116.931 37.2C115.304 37.2 114.237 37.9733 113.731 39.52C113.224 41.0667 112.971 43.08 112.971 45.56C112.971 47.9333 113.264 49.9733 113.851 51.68C114.437 53.36 115.517 54.2 117.091 54.2C118.264 54.2 119.144 53.76 119.731 52.88C120.317 51.9733 120.611 50.8533 120.611 49.52V38.44ZM137.104 36.92C136.304 36.92 135.664 37.1333 135.184 37.56C134.704 37.96 134.464 38.5467 134.464 39.32C134.464 40.36 134.811 41.2133 135.504 41.88C136.224 42.52 137.318 43.24 138.784 44.04C139.958 44.68 140.891 45.2533 141.584 45.76C142.304 46.2667 142.918 46.92 143.424 47.72C143.931 48.4933 144.184 49.44 144.184 50.56C144.184 52.5867 143.451 54.1467 141.984 55.24C140.544 56.3333 138.704 56.88 136.464 56.88C134.518 56.88 132.878 56.5467 131.544 55.88C130.238 55.2133 129.584 54.1067 129.584 52.56C129.584 51.6533 129.864 50.96 130.424 50.48C130.984 50 131.744 49.76 132.704 49.76C133.398 49.76 133.931 49.9067 134.304 50.2C134.091 50.84 133.984 51.44 133.984 52C133.984 52.8533 134.251 53.5333 134.784 54.04C135.318 54.52 136.038 54.76 136.944 54.76C137.931 54.76 138.678 54.5067 139.184 54C139.718 53.4667 139.984 52.6933 139.984 51.68C139.984 50.64 139.624 49.8 138.904 49.16C138.211 48.4933 137.131 47.76 135.664 46.96C134.491 46.2933 133.544 45.7067 132.824 45.2C132.131 44.6933 131.531 44.0533 131.024 43.28C130.518 42.48 130.264 41.52 130.264 40.4C130.264 38.6133 130.984 37.24 132.424 36.28C133.864 35.2933 135.611 34.8 137.664 34.8C139.558 34.8 141.104 35.1467 142.304 35.84C143.531 36.5067 144.144 37.6133 144.144 39.16C144.144 40.0667 143.851 40.76 143.264 41.24C142.704 41.72 141.944 41.96 140.984 41.96C140.291 41.96 139.758 41.8133 139.384 41.52C139.598 40.88 139.704 40.28 139.704 39.72C139.704 38.84 139.478 38.16 139.024 37.68C138.598 37.1733 137.958 36.92 137.104 36.92ZM164.358 35.68C164.358 36.8 164.024 37.8667 163.358 38.88C162.691 39.8667 161.838 40.6533 160.798 41.24C162.558 41.5867 163.904 42.3867 164.838 43.64C165.798 44.8933 166.278 46.44 166.278 48.28C166.278 50.0667 165.784 51.5733 164.798 52.8C163.811 54 162.491 54.9067 160.838 55.52C159.211 56.1067 157.438 56.4 155.518 56.4C153.278 56.4 150.824 56.2 148.158 55.8V29.76C151.304 29.5467 153.811 29.44 155.678 29.44C158.398 29.44 160.518 29.9067 162.038 30.84C163.584 31.7733 164.358 33.3867 164.358 35.68ZM152.838 40.44C153.451 40.52 154.131 40.56 154.878 40.56C156.451 40.56 157.624 40.2 158.398 39.48C159.171 38.76 159.558 37.6267 159.558 36.08C159.558 33.52 158.171 32.24 155.398 32.24C154.571 32.24 153.718 32.3067 152.838 32.44V40.44ZM152.838 53.36C153.798 53.52 154.691 53.6 155.518 53.6C157.384 53.6 158.811 53.1733 159.798 52.32C160.811 51.4667 161.318 50.16 161.318 48.4C161.318 46.4 160.771 45.0533 159.678 44.36C158.611 43.64 156.931 43.28 154.638 43.28C153.918 43.28 153.318 43.32 152.838 43.4V53.36ZM180.839 54.16C180.333 55.0933 179.586 55.7733 178.599 56.2C177.639 56.6533 176.546 56.88 175.319 56.88C173.479 56.88 171.933 56.32 170.679 55.2C169.453 54.08 168.839 52.6267 168.839 50.84C168.839 46.52 172.693 44.36 180.399 44.36V40.88C180.399 39.5467 180.199 38.56 179.799 37.92C179.399 37.2533 178.639 36.92 177.519 36.92C176.586 36.92 175.813 37.1733 175.199 37.68C174.586 38.16 174.279 38.84 174.279 39.72C174.279 40.28 174.386 40.88 174.599 41.52C174.226 41.8133 173.693 41.96 172.999 41.96C172.039 41.96 171.279 41.72 170.719 41.24C170.159 40.76 169.879 40.0667 169.879 39.16C169.879 37.88 170.599 36.84 172.039 36.04C173.479 35.2133 175.399 34.8 177.799 34.8C179.559 34.8 180.946 35.0667 181.959 35.6C182.973 36.1067 183.693 36.9067 184.119 38C184.573 39.0667 184.799 40.5067 184.799 42.32V52.72C184.799 54.0267 185.213 54.9067 186.039 55.36C185.826 55.76 185.506 56.0667 185.079 56.28C184.679 56.4933 184.213 56.6 183.679 56.6C182.906 56.6 182.266 56.3867 181.759 55.96C181.253 55.5067 180.946 54.9067 180.839 54.16ZM176.879 54.2C178.053 54.2 178.933 53.76 179.519 52.88C180.106 51.9733 180.399 50.8533 180.399 49.52V46.36C175.893 46.36 173.639 47.8 173.639 50.68C173.639 51.7467 173.919 52.6 174.479 53.24C175.066 53.88 175.866 54.2 176.879 54.2ZM197.279 37.16C194.613 37.16 193.279 40.0667 193.279 45.88C193.279 48.2533 193.573 50.1733 194.159 51.64C194.773 53.08 195.946 53.8 197.679 53.8C198.853 53.8 199.853 53.4933 200.679 52.88C201.533 52.24 202.106 51.3467 202.399 50.2C202.853 50.4133 203.173 50.6667 203.359 50.96C203.573 51.2267 203.679 51.6 203.679 52.08C203.679 53.04 203.359 53.8933 202.719 54.64C202.106 55.36 201.306 55.9067 200.319 56.28C199.333 56.68 198.319 56.88 197.279 56.88C194.346 56.88 192.173 55.9333 190.759 54.04C189.346 52.12 188.639 49.5467 188.639 46.32C188.639 42.88 189.399 40.1067 190.919 38C192.466 35.8667 194.786 34.8 197.879 34.8C199.693 34.8 201.186 35.1733 202.359 35.92C203.533 36.6667 204.119 37.8133 204.119 39.36C204.119 40.2667 203.839 40.96 203.279 41.44C202.719 41.92 201.959 42.16 200.999 42.16C200.706 42.16 200.399 42.12 200.079 42.04C199.786 41.96 199.546 41.8533 199.359 41.72C199.573 41.08 199.679 40.48 199.679 39.92C199.679 38.08 198.879 37.16 197.279 37.16ZM208.011 56V28L212.411 27.52V56H208.011ZM219.651 35.6H224.291L217.371 44.08L224.451 56H219.331L212.971 44.8L219.651 35.6ZM239.793 50.36C240.407 50.6533 240.713 51.2267 240.713 52.08C240.713 53.04 240.393 53.8933 239.753 54.64C239.113 55.36 238.287 55.9067 237.273 56.28C236.26 56.68 235.233 56.88 234.193 56.88C231.26 56.88 229.087 55.9333 227.673 54.04C226.26 52.12 225.553 49.5467 225.553 46.32C225.553 42.88 226.313 40.1067 227.833 38C229.38 35.8667 231.713 34.8 234.833 34.8C236.807 34.8 238.393 35.32 239.593 36.36C240.793 37.3733 241.393 38.8133 241.393 40.68C241.393 43 240.58 44.6267 238.953 45.56C237.353 46.4933 235.167 46.96 232.393 46.96C231.62 46.96 230.887 46.9333 230.193 46.88C230.273 48.9867 230.62 50.6667 231.233 51.92C231.873 53.1733 232.993 53.8 234.593 53.8C235.767 53.8 236.793 53.5067 237.673 52.92C238.58 52.3067 239.287 51.4533 239.793 50.36ZM234.193 37.08C232.753 37.08 231.74 37.84 231.153 39.36C230.567 40.8533 230.247 42.6933 230.193 44.88C230.993 44.9333 231.58 44.96 231.953 44.96C235.313 44.96 236.993 43.6133 236.993 40.92C236.993 39.8267 236.753 38.92 236.273 38.2C235.82 37.4533 235.127 37.08 234.193 37.08ZM245.234 35.6L248.914 35.12L249.114 38.72C249.62 37.44 250.394 36.4667 251.434 35.8C252.5 35.1333 253.74 34.8 255.154 34.8C257.394 34.8 258.954 35.4267 259.834 36.68C260.714 37.9067 261.154 39.7867 261.154 42.32V52.72C261.154 54.0267 261.567 54.9067 262.394 55.36C262.18 55.76 261.834 56.0667 261.354 56.28C260.874 56.4933 260.367 56.6 259.834 56.6C258.794 56.6 258.02 56.3067 257.514 55.72C257.007 55.1333 256.754 54.3067 256.754 53.24V42.88C256.754 41.2 256.567 39.9467 256.194 39.12C255.82 38.2933 254.994 37.88 253.714 37.88C252.087 37.88 250.994 38.6 250.434 40.04C249.9 41.48 249.634 43.3333 249.634 45.6V56H245.234V35.6ZM281.847 52.72C281.847 54.0267 282.26 54.9067 283.087 55.36C282.873 55.76 282.553 56.0667 282.127 56.28C281.727 56.4933 281.26 56.6 280.727 56.6C279.953 56.6 279.313 56.3867 278.807 55.96C278.3 55.5067 277.993 54.9067 277.887 54.16C277.46 55.04 276.767 55.7067 275.807 56.16C274.873 56.64 273.86 56.88 272.767 56.88C270.047 56.88 268.073 55.84 266.847 53.76C265.62 51.68 265.007 49.0133 265.007 45.76C265.007 42.4 265.727 39.7333 267.167 37.76C268.633 35.7867 270.9 34.8 273.967 34.8C275.247 34.8 276.407 34.9733 277.447 35.32V28L281.847 27.52V52.72ZM277.447 38.44C276.22 37.6133 274.993 37.2 273.767 37.2C272.14 37.2 271.073 37.9733 270.567 39.52C270.06 41.0667 269.807 43.08 269.807 45.56C269.807 47.9333 270.1 49.9733 270.687 51.68C271.273 53.36 272.353 54.2 273.927 54.2C275.1 54.2 275.98 53.76 276.567 52.88C277.153 51.9733 277.447 50.8533 277.447 49.52V38.44Z" fill="black"/>
<defs>
<filter id="filter0_d_185_10" x="-188.64" y="-173.568" width="446.64" height="447.151" filterUnits="userSpaceOnUse" color-interpolation-filters="sRGB">
<feFlood flood-opacity="0" result="BackgroundImageFix"/>
<feColorMatrix in="SourceAlpha" type="matrix" values="0 0 0 0 0 0 0 0 0 0 0 0 0 0 0 0 0 0 127 0" result="hardAlpha"/>
<feOffset dx="5" dy="5"/>
<feGaussianBlur stdDeviation="100"/>
<feComposite in2="hardAlpha" operator="out"/>
<feColorMatrix type="matrix" values="0 0 0 0 0 0 0 0 0 0 0 0 0 0 0.458824 0 0 0 1 0"/>
<feBlend mode="normal" in2="BackgroundImageFix" result="effect1_dropShadow_185_10"/>
<feBlend mode="normal" in="SourceGraphic" in2="effect1_dropShadow_185_10" result="shape"/>
</filter>
</defs>
</svg>
